# xmcd
#
# Track frame offsets: 
#        150
#        22323
#        48421
#        76356
#        97665
#        117214
#        137977
#        158974
#        179135
#        198697
#
# Disc length: 2919 seconds
#
# Revision: 0
# Processed by: cddbd v1.5.2PL0 Copyright (c) Steve Scherf et al.
# Submitted via: ExactAudioCopy v0.99pb5
#
DISCID=8d0b650a
DTITLE=The Homemade Jamz Blues Band - The Game
DYEAR=2010
DGENRE=Blues
TTITLE0=Washing Clothes
TTITLE1=I'm The Man
TTITLE2=The Game
TTITLE3=Tupelo
TTITLE4=Burned Down The House
TTITLE5=Blues Train
TTITLE6=Gotta Bad Bad Feeling
TTITLE7=Telling Lies
TTITLE8=Duck Hill Stomp
TTITLE9=Nothings Changed For The Po
EXTD=
EXTT0=
EXTT1=
EXTT2=
EXTT3=
EXTT4=
EXTT5=
EXTT6=
EXTT7=
EXTT8=
EXTT9=
PLAYORDER=
